<svg width="20" height="15" viewBox="0 0 60 30" fill="none" xmlns="http://www.w3.org/2000/svg">
  <rect width="60" height="30" fill="#1EB6F9"/>
  <rect y="10" width="60" height="10" fill="#FFF"/>
  <rect y="20" width="60" height="10" fill="#3CB54A"/>
  <rect y="9" width="60" height="2" fill="#D92E35"/>
  <rect y="19" width="60" height="2" fill="#D92E35"/>
  <circle cx="7.5" cy="7.5" r="4.5" fill="#FFF"/>
  <circle cx="9" cy="7.5" r="4.5" fill="#1EB6F9"/>
  <circle cx="9" cy="7.5" r="3" fill="#FFF"/>
  <circle cx="7.5" cy="7.5" r="3" fill="#1EB6F9"/>
  <g fill="#FFF">
    <circle cx="12" cy="5" r="0.9"/>
    <circle cx="14" cy="6" r="0.9"/>
    <circle cx="12" cy="7" r="0.9"/>
    <circle cx="14" cy="8" r="0.9"/>
    <circle cx="12" cy="9" r="0.9"/>
    <circle cx="16" cy="5" r="0.9"/>
    <circle cx="18" cy="6" r="0.9"/>
    <circle cx="16" cy="7" r="0.9"/>
    <circle cx="18" cy="8" r="0.9"/>
    <circle cx="16" cy="9" r="0.9"/>
    <circle cx="20" cy="7" r="0.9"/>
  </g>
</svg>
